<?xml version="1.0" encoding="UTF-8" standalone="no"?>
<svg
   width="301.37683mm"
   height="68.241768mm"
   viewBox="0 0 301.37683 68.241768"
   version="1.1"
   xmlns="http://www.w3.org/2000/svg">
  <g transform="translate(19.068878,-121.74288)">
    <!-- "a" — accent purple -->
    <path fill="#7c3aed" d="M 9.8694746,189.43967 C 8.8016437,188.96495 7.3555978,187.35096 7.0031291,186.24043 6.91555,185.9645 6.524408,185.6744 6.1339247,185.59576 c -2.5177127,-0.50698 -7.02600193,-2.25148 -9.2914809,-3.59536 -2.2402275,-1.32891 -6.8911228,-5.02512 -6.8999128,-5.48358 -0.0018,-0.0946 -0.462623,-0.6665 -1.02402,-1.27084 -0.933159,-1.00456 -1.135484,-1.09971 -2.358501,-1.10918 -4.893882,-0.0379 -7.396621,-5.67514 -4.201637,-9.46386 l 0.694816,-0.82394 -0.416092,-1.95419 c -0.565934,-2.65792 -0.35666,-8.47622 0.417644,-11.61148 2.036167,-8.2447 6.680606,-14.45049 14.2232162,-19.00473 4.1307663,-2.49416 9.0762522,-3.74943 14.7718748,-3.74943 2.124559,0 4.295275,0.15951 5.461514,0.40133 9.910278,2.05491 17.984663,8.82306 21.76841,18.2468 0.831521,2.07098 0.882906,2.13314 2.15116,2.60232 2.591259,0.95863 3.933268,2.96169 3.76411,5.61826 -0.122984,1.93142 -1.031415,3.54145 -2.480666,4.39653 l -0.910195,0.53703 v 9.8448 9.84481 l 1.143217,0.80582 c 3.392422,2.3912 2.98401,7.78582 -0.720017,9.51054 -2.842659,1.32364 -5.571883,0.5325 -7.382351,-2.13997 -1.475765,-2.17841 -0.64369,-5.81142 1.703554,-7.43806 l 1.022263,-0.70843 v -9.86806 c 0,-9.4072 -0.02311,-9.8754 -0.494797,-10.02511 -0.272138,-0.0864 -0.960625,-0.62752 -1.529971,-1.20256 l -1.035174,-1.04552 -2.9018,0.36694 c -1.59599,0.20182 -4.8068,0.62051 -7.135133,0.93042 -2.328334,0.30991 -4.731431,0.62449 -5.340216,0.69907 -1.012512,0.12404 -1.174759,0.25587 -1.903002,1.54624 -0.452819,0.80236 -1.19871,1.65946 -1.729738,1.98766 l -0.93362,0.57701 -0.0738,7.8545 -0.0738,7.8545 1.358311,1.25172 c 2.909055,2.68076 2.959196,6.29105 0.12111,8.72034 -1.629175,1.39451 -3.92568,1.67695 -6.0297354,0.74157 z m -1.012136,-9.29971 1.4132924,-1.3642 0.02509,-7.56548 c 0.0138,-4.16102 -0.06467,-7.68455 -0.174379,-7.83007 -0.3294464,-0.437 -1.8751441,-1.45521 -2.2090861,-1.45521 -0.1711911,0 -2.9442155,1.12094 -6.1622764,2.49097 -3.218061,1.37004 -6.6793933,2.82983 -7.6918497,3.24398 -1.7383975,0.71112 -1.852793,0.8106 -2.0558244,1.78779 -0.1182471,0.56913 -0.3419207,1.18772 -0.4970525,1.37464 -0.3307755,0.39856 -0.2231147,0.61148 1.1496733,2.2737 1.4333272,1.73553 4.7626744,4.45793 6.86506571,5.61355 1.76436979,0.96982 6.53892149,2.75322 7.44318059,2.78019 0.2644836,0.008 1.1168606,-0.59954 1.8941711,-1.34986 z M -6.7912266,163.50003 c 1.0430372,-0.44342 2.4322124,-1.03364 3.0870562,-1.3116 0.6548438,-0.27796 3.09562514,-1.29972 5.4239586,-2.27059 2.3283334,-0.97087 4.363102,-1.8987 4.5217079,-2.06184 0.1586059,-0.16314 0.5006555,-0.87469 0.7601103,-1.58121 0.9061823,-2.46763 3.0326426,-4.12119 5.3157116,-4.13356 1.281712,-0.007 3.593687,1.07534 4.349372,2.03604 0.508341,0.64625 0.604144,0.66527 2.448362,0.48594 1.055626,-0.10265 4.836352,-0.59168 8.401612,-1.08674 5.037621,-0.69951 6.541258,-0.99639 6.746875,-1.3321 0.145521,-0.23759 0.60521,-0.95761 1.02153,-1.60004 0.866496,-1.33711 0.885925,-1.23666 -0.965376,-4.9912 -1.909663,-3.87291 -4.829362,-7.24104 -8.341016,-9.6221 -2.133042,-1.4463 -3.765256,-2.22439 -6.796388,-3.23989 -2.596085,-0.86975 -2.732894,-0.88651 -7.276042,-0.89138 -5.0291293,-0.005 -6.2029333,0.21995 -10.3895472,1.99455 -10.1558668,4.30482 -16.5233998,15.9894 -14.7070538,26.98779 0.29713,1.79919 0.323104,1.84257 1.256771,2.09895 0.524354,0.14399 1.310558,0.50028 1.747121,0.79176 1.0317093,0.68883 1.1569565,0.67877 3.3952354,-0.27278 z" />
    <!-- "tomic" — black -->
    <path fill="#1a1a1a" d="M 106.62271,186.25973 c -7.435519,-0.87099 -13.889114,-4.98194 -17.434159,-11.10556 -2.101805,-3.63061 -2.924138,-6.59731 -3.116919,-11.24479 -0.241348,-5.81835 0.898375,-10.35397 3.667798,-14.5963 3.221595,-4.93499 8.063297,-8.28637 14.14583,-9.79162 2.77886,-0.68769 8.79339,-0.62678 11.79302,0.11943 8.52725,2.12129 14.78278,8.46443 16.9203,17.15728 0.81481,3.31366 0.81298,8.52861 -0.004,11.87371 -1.67444,6.85453 -6.01714,12.25305 -12.34129,15.34177 -2.66749,1.3028 -4.51104,1.83228 -7.79827,2.23972 -2.465,0.30552 -3.27084,0.3064 -5.83215,0.006 z m 7.01583,-6.1208 c 0.72761,-0.15863 2.15636,-0.67343 3.175,-1.14398 5.89034,-2.72101 9.49507,-8.24386 9.85333,-15.09639 0.30987,-5.92693 -1.66978,-10.95601 -5.85317,-14.86937 -3.28001,-3.06829 -7.48504,-4.4872 -12.41594,-4.18952 -4.52219,0.273 -7.55651,1.65183 -10.769332,4.89371 -3.491623,3.52319 -5.11759,7.60563 -5.119171,12.85308 -0.0016,5.34417 1.620345,9.59248 4.943475,12.9482 4.262278,4.30408 10.033138,5.94568 16.185808,4.60427 z m 145.52084,6.11119 c -7.70075,-1.03479 -14.14613,-5.65488 -17.45319,-12.51057 -4.5942,-9.52398 -2.58659,-21.79765 4.68896,-28.6662 6.14449,-5.80077 15.55442,-7.66697 24.38696,-4.8365 4.16915,1.33605 8.15592,4.49482 10.39099,8.23293 1.37845,2.30542 1.44756,2.13055 -1.32435,3.351 -1.36691,0.60184 -2.67243,1.16606 -2.90116,1.25383 -0.2992,0.11482 -0.68919,-0.27286 -1.39021,-1.38199 -2.74701,-4.34624 -6.52003,-6.52684 -11.90521,-6.88058 -6.92853,-0.45511 -12.91414,2.95576 -15.8695,9.04317 -1.24765,2.5699 -1.73443,4.56565 -1.90672,7.81734 -0.40308,7.6074 3.16398,14.25811 9.18239,17.12039 2.85643,1.35849 4.56272,1.75578 7.54063,1.75578 5.57117,0 10.03369,-2.30879 12.95451,-6.70232 l 1.21247,-1.82382 2.77224,1.20487 c 1.52473,0.66268 2.77112,1.33752 2.76975,1.49965 -0.0113,1.33893 -4.04807,6.0942 -6.70524,7.89865 -4.39399,2.9839 -10.76281,4.38769 -16.44332,3.62437 z M 69.097457,185.61318 c -4.35726,-0.99103 -7.02781,-3.48305 -8.338088,-7.78068 -0.503343,-1.65093 -0.540027,-2.62085 -0.634179,-16.7674 L 60.025257,146.05 h -4.348046 -4.348046 v -2.91042 -2.91041 h 4.361082 4.361082 l 0.07069,-6.68073 0.07069,-6.68073 3.108854,-0.0745 3.108855,-0.0746 v 6.75528 6.75527 h 6.217708 6.217709 v 2.91041 2.91042 h -6.234159 -6.234159 l 0.09998,14.35365 c 0.07824,11.23286 0.178197,14.5708 0.459745,15.35244 0.485878,1.3489 1.938251,2.99369 3.27192,3.7054 1.516877,0.80948 4.915116,0.79662 7.172297,-0.0271 0.868082,-0.31681 1.612222,-0.57602 1.653646,-0.57602 0.04142,0 0.07532,1.36461 0.07532,3.03246 v 3.03246 l -1.389062,0.4279 c -1.949039,0.60039 -6.524912,0.73943 -8.623897,0.26203 z m 74.835883,-22.89443 v -22.48958 h 3.0427 3.04271 l 0.0139,3.10885 c 0.0134,3.00795 0.0284,3.08739 0.46224,2.4474 3.49491,-5.15601 10.22451,-7.7378 16.97902,-6.51394 4.2461,0.76935 7.95728,3.31346 9.7007,6.65006 0.41674,0.79757 0.81993,1.4504 0.89598,1.45075 0.076,3.4e-4 0.35548,-0.40272 0.62096,-0.89569 0.69849,-1.29701 3.50379,-4.02592 5.19389,-5.05245 4.97644,-3.02258 12.2873,-3.27825 17.56465,-0.61425 2.27864,1.15025 4.61963,3.58815 5.79784,6.03786 1.89117,3.93209 1.85815,3.5648 1.96804,21.89026 l 0.0988,16.47031 h -3.17245 -3.17244 l -0.10429,-15.41198 c -0.11389,-16.83077 -0.14846,-17.2366 -1.71314,-20.11143 -3.18069,-5.84398 -12.34168,-6.63435 -17.44421,-1.50501 -1.69981,1.70875 -2.60047,3.35193 -3.26813,5.96249 -0.49022,1.91673 -0.52339,2.9659 -0.52339,16.55617 v 14.50976 h -3.30729 -3.30729 l -0.005,-15.0151 c -0.005,-16.29741 -0.0672,-17.14587 -1.46692,-20.00448 -1.55378,-3.17322 -4.47153,-5.08096 -8.2093,-5.36758 -6.09201,-0.46713 -10.83875,3.10272 -12.71593,9.56321 -0.40805,1.40432 -0.47242,3.27423 -0.55784,16.20572 l -0.0966,14.61823 h -3.1588 -3.15879 z m 78.31667,0 v -22.48958 h 3.175 3.175 v 22.48958 22.48958 h -3.175 -3.175 z m 0.93386,-32.08911 c -3.36147,-1.90387 -3.29572,-6.60218 0.11652,-8.32599 3.26769,-1.65079 6.88712,0.5257 6.88712,4.14146 0,3.6723 -3.84836,5.97162 -7.00364,4.18453 z" />
  </g>
</svg>
